<svg width="180" height="180" viewBox="0 0 180 180" fill="none" xmlns="http://www.w3.org/2000/svg">
<path d="M113.695 15.1905C111.483 19.0842 109.182 22.2699 108.651 22.2699C108.032 22.2699 105.377 21.6504 102.722 20.9425C100.068 20.2346 94.4041 19.6151 90.245 19.6151C61.0425 19.6151 38.0345 42.5346 37.769 71.8256C37.6806 83.772 39.2734 83.5066 40.0698 71.3831C40.4238 64.0383 41.2202 60.1446 42.9016 55.4545C49.0076 39.2604 60.777 28.3758 77.4136 23.5973C83.6966 21.7389 100.599 22.0929 105.112 24.1282L108.032 25.3671L98.4748 41.5612L89.0061 57.8438L84.0505 59.7906C81.3073 60.941 77.8561 62.6224 76.3517 63.6843C73.0775 66.0736 69.0953 73.7724 69.0953 77.7546C69.0953 79.9669 68.5644 80.9403 66.706 81.9137C63.1663 83.772 60.6001 86.7808 58.3878 91.6479C56.7949 95.276 56.5294 97.5768 56.6179 105.01C56.7064 118.727 60.8655 128.107 69.8918 135.009L74.4049 138.372V144.478V150.584H90.3335H106.262V144.035C106.262 138.46 106.528 137.31 107.855 136.956C110.244 136.159 116.704 129.434 119.27 125.186C122.456 119.7 123.872 113.24 124.049 104.037C124.138 97.4883 123.784 95.0991 122.279 91.6479C120.067 86.7808 117.501 83.6835 114.049 81.9137C112.103 80.9403 111.572 79.9669 111.572 77.8431C111.572 74.4803 108.917 68.7283 105.731 65.2771L103.342 62.7994L115.465 50.6759L127.589 38.641L130.244 41.7382C136.703 49.26 140.774 62.0029 140.774 74.7458C140.774 79.8784 141.04 81.6482 141.925 81.3827C143.429 80.8518 143.783 71.7371 142.544 64.3037C141.128 56.2509 136.969 46.2513 132.81 40.9418L129.447 36.6941L136.88 29.2608C143.517 22.7123 145.641 19.6151 143.694 19.6151C143.252 19.6151 133.606 28.9953 122.102 40.4993L101.13 61.472L96.8819 59.7906C94.4926 58.9942 92.4573 58.1978 92.2803 58.0208C92.1033 57.9323 98.0323 47.4902 105.466 34.6588C112.811 21.9159 119.093 10.6774 119.27 9.79246C120.332 5.8988 117.501 8.64206 113.695 15.1905ZM97.2359 62.6224C103.253 65.1002 108.828 72.3565 108.917 77.6661C108.917 80.7633 104.758 79.4359 104.05 76.1617C103.253 72.445 98.3863 67.7549 94.0502 66.516C91.0414 65.5426 89.6255 65.5426 86.6168 66.4275C82.1037 67.8434 77.2366 72.445 76.5287 76.1617C76.0862 78.374 75.4668 78.905 73.6969 78.905C71.6616 78.905 71.5731 78.6395 72.0156 75.7192C73.6969 65.2771 87.0593 58.2863 97.2359 62.6224ZM95.466 69.5248C98.6518 71.2061 100.687 73.5069 101.395 76.4272C101.926 78.6395 101.749 78.905 99.8907 78.905C98.3863 78.905 97.5014 78.197 96.7934 76.3387C94.9351 71.2061 86.2628 71.2061 83.6081 76.3387C82.1922 79.2589 78.8295 79.8784 78.8295 77.3121C78.8295 73.3299 85.2009 68.2859 90.1565 68.2859C91.7494 68.2859 94.1387 68.8168 95.466 69.5248ZM93.6077 76.7811L95.9085 79.0819L93.0767 80.7633C90.5105 82.3562 90.068 82.3562 87.6787 81.1173C84.493 79.5244 84.4045 78.6395 86.9708 76.2502C89.5371 73.9494 90.8644 74.0379 93.6077 76.7811ZM85.3779 82.4447C90.1565 84.2145 86.9708 87.3117 81.5727 86.0728C73.5199 84.303 66.0866 88.5506 64.2282 95.984C63.7858 97.7538 63.0778 98.3733 61.485 98.3733C58.8302 98.3733 58.6532 96.0725 61.0425 91.4709C65.4671 82.7986 76.0862 78.905 85.3779 82.4447ZM112.014 83.6835C115.996 85.8074 120.155 91.2939 120.952 95.453C121.483 98.1078 121.306 98.3733 119.447 98.3733C117.766 98.3733 116.881 97.4883 115.377 94.1256C111.66 86.1613 101.837 83.3296 94.7581 88.1967C91.6609 90.3205 88.5636 94.9221 88.5636 97.3999C88.5636 97.9308 87.5902 98.3733 86.3513 98.3733C83.6966 98.3733 83.4311 96.161 85.5549 91.9133C90.6875 81.8252 102.014 78.2855 112.014 83.6835ZM82.6347 89.4355C84.316 91.0284 82.2807 92.7098 79.1835 92.3558C76.6172 92.0018 75.6438 92.4443 73.0775 95.1875C70.1572 98.2848 66.4406 99.4352 66.4406 97.2229C66.4406 94.5681 71.1307 89.701 74.8473 88.4621C76.7942 87.8427 81.4843 88.4621 82.6347 89.4355ZM106.528 88.9931C109.802 90.409 112.899 93.5062 113.784 96.3379C114.226 98.1078 114.049 98.3733 112.103 98.3733C110.864 98.3733 109.802 97.9308 109.802 97.4883C109.802 96.9574 108.828 95.5415 107.589 94.3911C104.404 91.1169 100.51 91.4709 96.8819 95.276C94.0502 98.2848 91.2184 99.3467 91.2184 97.3999C91.2184 95.5415 94.6696 90.7629 96.7049 89.7895C101.395 87.4887 102.811 87.4002 106.528 88.9931ZM81.4843 96.6034C81.4843 98.1078 80.8648 98.3733 77.3251 98.3733C73.343 98.3733 73.2545 98.3733 74.8473 96.6034C75.7323 95.63 77.5906 94.8336 79.0065 94.8336C80.8648 94.8336 81.4843 95.276 81.4843 96.6034ZM105.466 95.7185C108.474 97.3999 107.236 98.3733 102.103 98.3733C97.2359 98.3733 97.1474 98.3733 98.7403 96.6034C100.51 94.6566 102.811 94.3911 105.466 95.7185ZM121.306 102.798C121.306 104.479 120.509 104.568 90.3335 104.568C59.8921 104.568 59.3612 104.568 59.3612 102.798C59.3612 101.028 59.8036 101.028 90.3335 101.028C120.509 101.117 121.306 101.117 121.306 102.798ZM121.306 110.762C121.306 120.85 112.014 133.239 101.395 137.221C94.1387 139.965 84.0505 139.611 77.0596 136.336C67.591 131.912 60.3346 121.824 59.5382 111.824L59.1842 107.223H90.245H121.306V110.762ZM91.9263 141.469C95.643 141.204 99.8022 140.761 101.218 140.407C103.607 139.788 103.607 139.788 103.607 143.858V147.929H90.3335H77.0596V143.593V139.168L81.0418 140.584C83.962 141.558 87.0593 141.823 91.9263 141.469Z" fill="#FF1616"/>
<path d="M33.5214 87.4001C33.1674 87.7541 30.9551 88.462 28.6543 89.0815C24.4067 90.1434 22.3714 92.1787 25.5571 92.1787C26.5305 92.1787 29.0083 91.5593 31.0436 90.8513C35.9107 89.17 40.6893 89.17 46.1758 90.9398C50.1579 92.2672 54.2286 92.0902 52.8127 90.6743C50.8659 88.7275 34.8488 85.9842 33.5214 87.4001Z" fill="#FF1616"/>
<path d="M137.057 87.4001C136.703 87.7541 134.491 88.462 132.19 89.0815C127.943 90.1434 125.907 92.1787 129.093 92.1787C130.066 92.1787 132.544 91.5593 134.58 90.8513C139.447 89.17 144.225 89.17 149.712 90.9398C153.694 92.2672 157.765 92.0902 156.349 90.6743C154.402 88.7275 138.385 85.9842 137.057 87.4001Z" fill="#FF1616"/>
<path d="M34.4063 94.4796C34.0523 94.8335 31.84 95.5415 29.5392 96.1609C24.5837 97.3998 22.9908 99.7006 27.5924 99.0812C29.2738 98.8157 32.4595 98.1077 34.7603 97.3998C38.3 96.4264 39.6274 96.4264 42.7246 97.3998C49.1845 99.3466 52.2818 99.6121 52.2818 98.1962C52.2818 96.1609 36.0877 92.7097 34.4063 94.4796Z" fill="#FF1616"/>
<path d="M137.942 94.4796C137.588 94.8335 135.376 95.5415 133.075 96.1609C128.12 97.3998 126.527 99.7006 131.128 99.0812C132.81 98.8157 135.996 98.1077 138.296 97.3998C141.836 96.4264 143.163 96.4264 146.261 97.3998C152.721 99.3466 155.818 99.6121 155.818 98.1962C155.818 96.1609 139.624 92.7097 137.942 94.4796Z" fill="#FF1616"/>
<path d="M33.2559 102.001C31.8401 102.532 29.2738 103.24 27.5924 103.506C23.9642 104.214 22.8138 106.338 25.9996 106.338C27.15 106.338 29.8932 105.718 31.9286 105.01C33.9639 104.302 37.0611 103.683 38.7425 103.683C40.3353 103.683 43.1671 104.302 44.9369 105.01C48.6536 106.603 52.5473 106.78 52.1048 105.276C51.3084 102.975 37.5036 100.497 33.2559 102.001Z" fill="#FF1616"/>
<path d="M136.792 102.001C135.376 102.532 132.81 103.24 131.128 103.506C127.5 104.214 126.35 106.338 129.536 106.338C130.686 106.338 133.429 105.718 135.465 105.01C137.5 104.302 140.597 103.683 142.278 103.683C143.871 103.683 146.703 104.302 148.473 105.01C152.19 106.603 156.083 106.78 155.641 105.276C154.844 102.975 141.04 100.497 136.792 102.001Z" fill="#FF1616"/>
<path d="M37.769 110.497C37.5036 110.762 37.2381 113.859 37.2381 117.31C37.3266 136.159 46.6183 154.123 61.485 163.769C70.0687 169.344 79.0065 171.999 89.9795 171.999C105.2 172.087 117.324 167.043 127.589 156.601C137.588 146.424 142.19 135.451 143.163 119.788C143.606 111.735 143.517 110.762 142.278 110.762C141.04 110.762 140.774 111.824 140.774 117.664C140.774 141.38 126.173 161.38 104.05 167.928C96.351 170.229 83.6966 170.052 75.7322 167.574C62.1929 163.415 51.3084 154.123 45.2024 141.292C41.3972 133.328 39.8929 126.691 39.8929 117.31C39.8929 111.381 39.1849 109.081 37.769 110.497Z" fill="#FF1616"/>
</svg>
